<svg width="207" height="24" viewBox="0 0 207 24" fill="none" xmlns="http://www.w3.org/2000/svg">
<path d="M2.272 22.792C1.872 22.792 1.544 22.68 1.288 22.456C1.048 22.248 0.928 22.016 0.928 21.76C0.928 21.472 0.968 21.256 1.048 21.112C1.144 20.952 1.344 20.84 1.648 20.776C2.4 20.6 3.176 20.392 3.976 20.152C4.792 19.896 5.552 19.632 6.256 19.36C6.96 19.072 7.528 18.792 7.96 18.52C8.408 18.248 8.632 18.008 8.632 17.8C8.632 17.608 8.456 17.424 8.104 17.248C7.752 17.056 7.304 16.848 6.76 16.624C6.216 16.4 5.632 16.152 5.008 15.88C4.384 15.608 3.8 15.296 3.256 14.944C2.712 14.592 2.264 14.192 1.912 13.744C1.56 13.28 1.384 12.752 1.384 12.16C1.384 11.232 1.608 10.368 2.056 9.568C2.52 8.752 3.12 8 3.856 7.312C4.592 6.624 5.4 5.992 6.28 5.416C7.176 4.824 8.056 4.304 8.92 3.856C9.8 3.392 10.584 2.984 11.272 2.632C11.496 2.504 11.712 2.416 11.92 2.368C12.128 2.32 12.312 2.296 12.472 2.296C12.936 2.296 13.272 2.4 13.48 2.608C13.688 2.816 13.792 3.056 13.792 3.328C13.792 3.552 13.672 3.816 13.432 4.12C13.192 4.408 12.848 4.664 12.4 4.888C11.952 5.112 11.416 5.224 10.792 5.224H10.6C10.056 5.512 9.464 5.856 8.824 6.256C8.184 6.656 7.552 7.096 6.928 7.576C6.304 8.056 5.728 8.552 5.2 9.064C4.688 9.56 4.272 10.04 3.952 10.504C3.648 10.968 3.496 11.392 3.496 11.776C3.496 12.24 3.672 12.656 4.024 13.024C4.376 13.392 4.824 13.72 5.368 14.008C5.928 14.296 6.512 14.576 7.12 14.848C7.744 15.12 8.328 15.4 8.872 15.688C9.432 15.96 9.888 16.264 10.24 16.6C10.592 16.92 10.768 17.296 10.768 17.728C10.768 18.224 10.592 18.696 10.24 19.144C9.904 19.592 9.456 20.008 8.896 20.392C8.336 20.76 7.72 21.096 7.048 21.4C6.392 21.688 5.744 21.936 5.104 22.144C4.464 22.352 3.888 22.512 3.376 22.624C2.88 22.736 2.512 22.792 2.272 22.792ZM24.7874 11.656C24.7874 12.168 24.6274 12.672 24.3074 13.168C23.9874 13.648 23.5634 14.112 23.0354 14.56C22.5074 14.992 21.9234 15.4 21.2834 15.784C20.6434 16.168 20.0034 16.504 19.3634 16.792C18.7234 17.08 18.1394 17.312 17.6114 17.488C17.4834 18.112 17.4194 18.664 17.4194 19.144C17.4194 19.448 17.4914 19.664 17.6354 19.792C17.7794 19.92 18.0034 19.984 18.3074 19.984C18.9794 19.984 19.6914 19.864 20.4434 19.624C21.1954 19.384 21.9634 19.072 22.7474 18.688C23.5314 18.304 24.2834 17.896 25.0034 17.464C25.7234 17.032 26.3794 16.624 26.9714 16.24C27.5794 15.856 28.0834 15.544 28.4834 15.304C28.8834 15.064 29.1474 14.944 29.2754 14.944C29.4674 14.944 29.6114 15.008 29.7074 15.136C29.8194 15.248 29.8754 15.384 29.8754 15.544C29.8754 15.672 29.6754 15.92 29.2754 16.288C28.8914 16.656 28.3714 17.088 27.7154 17.584C27.0594 18.064 26.3234 18.56 25.5074 19.072C24.6914 19.584 23.8434 20.064 22.9634 20.512C22.0994 20.96 21.2594 21.32 20.4434 21.592C19.6434 21.864 18.9234 22 18.2834 22C17.4514 22 16.8034 21.688 16.3394 21.064C15.8754 20.44 15.6434 19.472 15.6434 18.16C15.6434 17.28 15.7554 16.392 15.9794 15.496C16.2194 14.6 16.5394 13.744 16.9394 12.928C17.3554 12.096 17.8114 11.36 18.3074 10.72C18.8194 10.064 19.3554 9.552 19.9154 9.184C20.4754 8.8 21.0194 8.608 21.5474 8.608C22.5554 8.608 23.3474 8.888 23.9234 9.448C24.4994 10.008 24.7874 10.744 24.7874 11.656ZM18.1154 15.64C18.6114 15.336 19.1234 15.016 19.6514 14.68C20.1794 14.344 20.6674 14 21.1154 13.648C21.5634 13.296 21.9234 12.928 22.1954 12.544C22.4834 12.144 22.6274 11.736 22.6274 11.32C22.6274 10.728 22.3074 10.432 21.6674 10.432C21.2674 10.432 20.8434 10.688 20.3954 11.2C19.9634 11.696 19.5474 12.344 19.1474 13.144C18.7474 13.944 18.4034 14.776 18.1154 15.64ZM30.2166 21.448C29.7526 21.448 29.3366 21.184 28.9686 20.656C28.6006 20.128 28.4166 19.448 28.4166 18.616C28.4166 17.704 28.5366 16.728 28.7766 15.688C29.0326 14.648 29.3446 13.592 29.7126 12.52C30.0806 11.432 30.4406 10.384 30.7926 9.376C30.8726 9.168 30.9846 9.016 31.1286 8.92C31.2886 8.808 31.5286 8.752 31.8486 8.752C32.4246 8.752 32.7126 9.032 32.7126 9.592C32.7126 9.72 32.6486 10.008 32.5206 10.456C32.3926 10.904 32.2246 11.456 32.0166 12.112C31.8246 12.768 31.6246 13.48 31.4166 14.248C31.2086 15 31.0246 15.76 30.8646 16.528C30.7046 17.296 30.5926 18.008 30.5286 18.664C30.7846 18.392 31.0726 17.976 31.3926 17.416C31.7286 16.856 32.0886 16.224 32.4726 15.52C32.8566 14.8 33.2566 14.08 33.6726 13.36C34.0886 12.624 34.5046 11.952 34.9206 11.344C35.3526 10.72 35.7686 10.224 36.1686 9.856C36.5846 9.472 36.9686 9.28 37.3206 9.28C37.8326 9.28 38.2646 9.44 38.6166 9.76C38.9846 10.064 39.2646 10.608 39.4566 11.392C39.6646 12.16 39.7686 13.248 39.7686 14.656C39.7686 15.408 39.8406 16.112 39.9846 16.768C40.1446 17.424 40.3926 17.952 40.7286 18.352C41.0806 18.736 41.5286 18.928 42.0726 18.928C42.8886 18.928 43.6166 18.784 44.2566 18.496C44.8966 18.192 45.4486 17.856 45.9126 17.488C46.3926 17.104 46.7926 16.768 47.1126 16.48C47.4326 16.176 47.6806 16.024 47.8566 16.024C48.2246 16.024 48.4086 16.216 48.4086 16.6C48.4086 16.76 48.2886 17.016 48.0486 17.368C47.8246 17.704 47.5046 18.088 47.0886 18.52C46.6886 18.936 46.2246 19.344 45.6966 19.744C45.1846 20.128 44.6326 20.448 44.0406 20.704C43.4646 20.96 42.8806 21.088 42.2886 21.088C41.1846 21.088 40.2806 20.872 39.5766 20.44C38.8886 20.008 38.3766 19.296 38.0406 18.304C37.7206 17.312 37.5606 15.984 37.5606 14.32C37.5606 13.408 37.5046 12.744 37.3926 12.328C37.2966 11.896 37.1126 11.608 36.8406 11.464C36.6486 11.8 36.4006 12.28 36.0966 12.904C35.7926 13.512 35.4406 14.192 35.0406 14.944C34.6566 15.696 34.2486 16.456 33.8166 17.224C33.4006 17.976 32.9766 18.672 32.5446 19.312C32.1126 19.952 31.6966 20.472 31.2966 20.872C30.8966 21.256 30.5366 21.448 30.2166 21.448ZM45.217 14.32C44.785 14.288 44.585 14.008 44.617 13.48C44.633 13.352 44.721 13.2 44.881 13.024C45.041 12.832 45.225 12.728 45.433 12.712C45.929 12.664 46.537 12.592 47.257 12.496C47.993 12.384 48.801 12.256 49.681 12.112C49.841 11.328 50.033 10.504 50.257 9.64C50.481 8.776 50.729 7.936 51.001 7.12C51.273 6.288 51.561 5.536 51.865 4.864C52.169 4.192 52.489 3.664 52.825 3.28C53.001 3.104 53.161 2.984 53.305 2.92C53.449 2.84 53.577 2.8 53.689 2.8C53.913 2.8 54.089 2.896 54.217 3.088C54.361 3.28 54.433 3.496 54.433 3.736C54.433 3.864 54.409 3.992 54.361 4.12C54.041 5.016 53.697 6.12 53.329 7.432C52.961 8.744 52.569 10.176 52.153 11.728C53.625 11.488 55.097 11.232 56.569 10.96C58.041 10.688 59.305 10.44 60.361 10.216C60.665 10.088 60.897 10.112 61.057 10.288C61.233 10.464 61.321 10.64 61.321 10.816C61.321 11.04 61.257 11.208 61.129 11.32C61.017 11.432 60.897 11.528 60.769 11.608L60.745 11.632C60.425 11.76 59.945 11.912 59.305 12.088C58.665 12.248 57.929 12.424 57.097 12.616C56.265 12.792 55.377 12.968 54.433 13.144C53.505 13.32 52.585 13.48 51.673 13.624C51.305 15.032 50.929 16.48 50.545 17.968C50.177 19.44 49.809 20.888 49.441 22.312C49.281 22.888 49.097 23.248 48.889 23.392C48.697 23.552 48.489 23.632 48.265 23.632C48.009 23.632 47.785 23.536 47.593 23.344C47.417 23.152 47.393 22.76 47.521 22.168L49.273 13.984C48.313 14.128 47.465 14.232 46.729 14.296C46.009 14.36 45.505 14.368 45.217 14.32ZM59.3899 23.08C59.0379 23.08 58.7659 22.976 58.5739 22.768C58.3819 22.576 58.2859 22.088 58.2859 21.304C58.2859 20.584 58.4139 19.648 58.6699 18.496C58.9259 17.328 59.2699 16.032 59.7019 14.608C60.1339 13.184 60.6219 11.712 61.1659 10.192C61.7099 8.656 62.2779 7.152 62.8699 5.68C63.4779 4.192 64.0619 2.832 64.6219 1.6C64.8299 1.152 65.0459 0.839999 65.2699 0.663999C65.4939 0.487999 65.7579 0.399999 66.0619 0.399999C66.2699 0.399999 66.4459 0.463999 66.5899 0.592C66.7499 0.703999 66.8299 0.895999 66.8299 1.168C66.8299 1.264 66.7259 1.576 66.5179 2.104C66.3259 2.632 66.0539 3.328 65.7019 4.192C65.3659 5.056 64.9899 6.024 64.5739 7.096C64.1579 8.168 63.7339 9.296 63.3019 10.48C62.8699 11.664 62.4619 12.856 62.0779 14.056C61.6939 15.24 61.3659 16.376 61.0939 17.464C60.8219 18.552 60.6379 19.528 60.5419 20.392C60.9259 19.928 61.3659 19.336 61.8619 18.616C62.3579 17.896 62.8859 17.12 63.4459 16.288C64.0059 15.456 64.5739 14.632 65.1499 13.816C65.7259 13 66.2939 12.256 66.8539 11.584C67.4139 10.912 67.9339 10.376 68.4139 9.976C68.9099 9.56 69.3419 9.352 69.7099 9.352C70.3179 9.352 70.8059 9.544 71.1739 9.928C71.5579 10.296 71.7499 10.904 71.7499 11.752C71.7499 12.232 71.6539 12.808 71.4619 13.48C71.2859 14.152 71.0779 14.856 70.8379 15.592C70.5979 16.328 70.3819 17.032 70.1899 17.704C70.0139 18.376 69.9259 18.952 69.9259 19.432C69.9259 20.088 70.1739 20.416 70.6699 20.416C71.4379 20.416 72.2059 20.248 72.9739 19.912C73.7579 19.576 74.5019 19.16 75.2059 18.664C75.9099 18.152 76.5579 17.64 77.1499 17.128C77.7419 16.6 78.2459 16.152 78.6619 15.784C79.1099 15.384 79.4859 15.184 79.7899 15.184C80.1739 15.184 80.3659 15.384 80.3659 15.784C80.3659 15.896 80.3419 16.024 80.2939 16.168C80.2459 16.312 80.1179 16.496 79.9099 16.72C79.6539 17.008 79.2859 17.384 78.8059 17.848C78.3419 18.312 77.7979 18.808 77.1739 19.336C76.5659 19.864 75.9019 20.36 75.1819 20.824C74.4779 21.288 73.7499 21.672 72.9979 21.976C72.2619 22.264 71.5419 22.408 70.8379 22.408C69.8779 22.408 69.1339 22.136 68.6059 21.592C68.0939 21.032 67.8379 20.264 67.8379 19.288C67.8379 18.68 67.9339 17.944 68.1259 17.08C68.3179 16.216 68.5579 15.304 68.8459 14.344C69.1499 13.368 69.4539 12.416 69.7579 11.488C69.2459 11.84 68.6859 12.368 68.0779 13.072C67.4859 13.76 66.8619 14.544 66.2059 15.424C65.5499 16.288 64.8939 17.168 64.2379 18.064C63.5979 18.96 62.9739 19.792 62.3659 20.56C61.7739 21.312 61.2219 21.92 60.7099 22.384C60.1979 22.848 59.7579 23.08 59.3899 23.08ZM79.6416 22.12C79.3376 22.12 79.0656 22.008 78.8256 21.784C78.5856 21.544 78.4656 21.176 78.4656 20.68C78.4656 20.328 78.5136 19.84 78.6096 19.216C78.7056 18.576 78.8336 17.88 78.9936 17.128C79.1536 16.376 79.3216 15.632 79.4976 14.896C79.6896 14.144 79.8816 13.472 80.0736 12.88C80.2656 12.288 80.4336 11.848 80.5776 11.56C80.7056 11.336 80.8256 11.192 80.9376 11.128C81.0656 11.064 81.1856 11.032 81.2976 11.032C81.5216 11.032 81.7136 11.104 81.8736 11.248C82.0496 11.392 82.1376 11.672 82.1376 12.088C82.1376 12.328 82.0896 12.728 81.9936 13.288C81.9136 13.832 81.8016 14.472 81.6576 15.208C81.5296 15.928 81.3856 16.672 81.2256 17.44C81.0816 18.192 80.9376 18.912 80.7936 19.6C80.6496 20.288 80.5376 20.864 80.4576 21.328C80.3936 21.584 80.2816 21.784 80.1216 21.928C79.9776 22.056 79.8176 22.12 79.6416 22.12ZM81.9936 8.848C81.6256 8.848 81.2736 8.736 80.9376 8.512C80.6176 8.288 80.4576 7.928 80.4576 7.432C80.4576 7.016 80.5536 6.68 80.7456 6.424C80.9536 6.168 81.1936 5.984 81.4656 5.872C81.7536 5.744 82.0016 5.68 82.2096 5.68C82.4176 5.68 82.6496 5.728 82.9056 5.824C83.1776 5.904 83.4096 6.064 83.6016 6.304C83.7936 6.528 83.8896 6.864 83.8896 7.312C83.8896 7.616 83.7856 7.888 83.5776 8.128C83.3696 8.352 83.1136 8.528 82.8096 8.656C82.5216 8.784 82.2496 8.848 81.9936 8.848ZM89.9961 22.96C88.7641 22.96 87.7961 22.56 87.0921 21.76C86.4041 20.944 86.0601 19.808 86.0601 18.352C86.0601 17.456 86.1801 16.408 86.4201 15.208C86.6761 13.992 86.9961 12.712 87.3801 11.368C87.7801 10.008 88.2121 8.664 88.6761 7.336C89.1401 6.008 89.5881 4.776 90.0201 3.64C90.4681 2.488 90.8601 1.528 91.1961 0.759999C91.3881 0.327999 91.6601 0.111999 92.0121 0.111999C92.4921 0.111999 92.7321 0.407999 92.7321 0.999999C92.7321 1.192 92.6441 1.584 92.4681 2.176C92.2921 2.768 92.0601 3.504 91.7721 4.384C91.4841 5.248 91.1721 6.208 90.8361 7.264C90.5001 8.32 90.1561 9.408 89.8041 10.528C89.4681 11.632 89.1561 12.728 88.8681 13.816C88.5801 14.888 88.3481 15.896 88.1721 16.84C87.9961 17.784 87.9081 18.592 87.9081 19.264C87.9081 19.696 88.0201 20.04 88.2441 20.296C88.4841 20.536 88.8041 20.656 89.2041 20.656C89.9401 20.656 90.6761 20.512 91.4121 20.224C92.1641 19.92 92.8841 19.552 93.5721 19.12C94.2601 18.672 94.8841 18.232 95.4441 17.8C96.0201 17.352 96.5081 16.984 96.9081 16.696C97.3081 16.392 97.5881 16.24 97.7481 16.24C98.1001 16.24 98.2761 16.432 98.2761 16.816C98.2761 16.944 98.1481 17.184 97.8921 17.536C97.6361 17.872 97.2921 18.272 96.8601 18.736C96.4281 19.2 95.9241 19.68 95.3481 20.176C94.7881 20.656 94.1961 21.112 93.5721 21.544C92.9641 21.96 92.3481 22.296 91.7241 22.552C91.1161 22.824 90.5401 22.96 89.9961 22.96ZM119.384 18.448C119.56 18.448 119.728 18.52 119.888 18.664C120.048 18.808 120.128 19.04 120.128 19.36C120.128 19.616 119.936 19.92 119.552 20.272C119.168 20.608 118.672 20.936 118.064 21.256C117.472 21.576 116.832 21.84 116.144 22.048C115.456 22.272 114.808 22.384 114.2 22.384C113.336 22.384 112.52 22.16 111.752 21.712C111 21.264 110.384 20.616 109.904 19.768C109.424 18.904 109.184 17.856 109.184 16.624C109.184 15.536 109.384 14.448 109.784 13.36C110.184 12.272 110.712 11.224 111.368 10.216C112.04 9.208 112.776 8.272 113.576 7.408C114.392 6.544 115.208 5.792 116.024 5.152C116.84 4.512 117.6 4.016 118.304 3.664C119.024 3.296 119.616 3.112 120.08 3.112C120.4 3.112 120.656 3.232 120.848 3.472C121.056 3.696 121.16 3.944 121.16 4.216C121.16 4.376 121.112 4.536 121.016 4.696C120.936 4.856 120.792 4.984 120.584 5.08C119.544 5.592 118.488 6.248 117.416 7.048C116.344 7.848 115.352 8.76 114.44 9.784C113.528 10.792 112.792 11.888 112.232 13.072C111.672 14.24 111.392 15.472 111.392 16.768C111.392 17.888 111.656 18.744 112.184 19.336C112.712 19.912 113.432 20.2 114.344 20.2C114.824 20.2 115.32 20.112 115.832 19.936C116.36 19.76 116.856 19.56 117.32 19.336C117.8 19.096 118.216 18.888 118.568 18.712C118.936 18.536 119.208 18.448 119.384 18.448ZM126.189 22.12C125.885 22.12 125.613 22.008 125.373 21.784C125.133 21.544 125.013 21.176 125.013 20.68C125.013 20.328 125.061 19.84 125.157 19.216C125.253 18.576 125.381 17.88 125.541 17.128C125.701 16.376 125.869 15.632 126.045 14.896C126.237 14.144 126.429 13.472 126.621 12.88C126.813 12.288 126.981 11.848 127.125 11.56C127.253 11.336 127.373 11.192 127.485 11.128C127.613 11.064 127.733 11.032 127.845 11.032C128.069 11.032 128.261 11.104 128.421 11.248C128.597 11.392 128.685 11.672 128.685 12.088C128.685 12.328 128.637 12.728 128.541 13.288C128.461 13.832 128.349 14.472 128.205 15.208C128.077 15.928 127.933 16.672 127.773 17.44C127.629 18.192 127.485 18.912 127.34 19.6C127.197 20.288 127.085 20.864 127.005 21.328C126.941 21.584 126.829 21.784 126.669 21.928C126.525 22.056 126.365 22.12 126.189 22.12ZM128.541 8.848C128.173 8.848 127.821 8.736 127.485 8.512C127.165 8.288 127.005 7.928 127.005 7.432C127.005 7.016 127.101 6.68 127.293 6.424C127.501 6.168 127.741 5.984 128.013 5.872C128.301 5.744 128.549 5.68 128.757 5.68C128.965 5.68 129.197 5.728 129.453 5.824C129.725 5.904 129.957 6.064 130.148 6.304C130.341 6.528 130.437 6.864 130.437 7.312C130.437 7.616 130.333 7.888 130.125 8.128C129.917 8.352 129.661 8.528 129.357 8.656C129.069 8.784 128.797 8.848 128.541 8.848ZM133.951 21.448C133.487 21.448 133.071 21.184 132.703 20.656C132.335 20.128 132.151 19.448 132.151 18.616C132.151 17.704 132.271 16.728 132.511 15.688C132.767 14.648 133.079 13.592 133.447 12.52C133.815 11.432 134.175 10.384 134.527 9.376C134.607 9.168 134.719 9.016 134.863 8.92C135.023 8.808 135.263 8.752 135.583 8.752C136.159 8.752 136.447 9.032 136.447 9.592C136.447 9.72 136.383 10.008 136.255 10.456C136.127 10.904 135.959 11.456 135.751 12.112C135.559 12.768 135.359 13.48 135.151 14.248C134.943 15 134.759 15.76 134.599 16.528C134.439 17.296 134.327 18.008 134.263 18.664C134.519 18.392 134.807 17.976 135.127 17.416C135.463 16.856 135.823 16.224 136.207 15.52C136.591 14.8 136.991 14.08 137.407 13.36C137.823 12.624 138.239 11.952 138.655 11.344C139.087 10.72 139.503 10.224 139.903 9.856C140.319 9.472 140.703 9.28 141.055 9.28C141.567 9.28 141.999 9.44 142.351 9.76C142.719 10.064 142.999 10.608 143.191 11.392C143.399 12.16 143.503 13.248 143.503 14.656C143.503 15.408 143.575 16.112 143.719 16.768C143.879 17.424 144.127 17.952 144.463 18.352C144.815 18.736 145.263 18.928 145.807 18.928C146.623 18.928 147.351 18.784 147.991 18.496C148.631 18.192 149.183 17.856 149.647 17.488C150.127 17.104 150.527 16.768 150.847 16.48C151.167 16.176 151.415 16.024 151.591 16.024C151.959 16.024 152.143 16.216 152.143 16.6C152.143 16.76 152.023 17.016 151.783 17.368C151.559 17.704 151.239 18.088 150.823 18.52C150.423 18.936 149.959 19.344 149.431 19.744C148.919 20.128 148.367 20.448 147.775 20.704C147.199 20.96 146.615 21.088 146.023 21.088C144.919 21.088 144.015 20.872 143.311 20.44C142.623 20.008 142.111 19.296 141.775 18.304C141.455 17.312 141.295 15.984 141.295 14.32C141.295 13.408 141.239 12.744 141.127 12.328C141.031 11.896 140.847 11.608 140.575 11.464C140.383 11.8 140.135 12.28 139.831 12.904C139.527 13.512 139.175 14.192 138.775 14.944C138.391 15.696 137.983 16.456 137.551 17.224C137.135 17.976 136.711 18.672 136.279 19.312C135.847 19.952 135.431 20.472 135.031 20.872C134.631 21.256 134.271 21.448 133.951 21.448ZM160.444 11.656C160.444 12.168 160.284 12.672 159.964 13.168C159.644 13.648 159.22 14.112 158.692 14.56C158.164 14.992 157.58 15.4 156.94 15.784C156.3 16.168 155.66 16.504 155.02 16.792C154.38 17.08 153.796 17.312 153.268 17.488C153.14 18.112 153.076 18.664 153.076 19.144C153.076 19.448 153.148 19.664 153.292 19.792C153.436 19.92 153.66 19.984 153.964 19.984C154.636 19.984 155.348 19.864 156.1 19.624C156.852 19.384 157.62 19.072 158.404 18.688C159.188 18.304 159.94 17.896 160.66 17.464C161.38 17.032 162.036 16.624 162.628 16.24C163.236 15.856 163.74 15.544 164.14 15.304C164.54 15.064 164.804 14.944 164.932 14.944C165.124 14.944 165.268 15.008 165.364 15.136C165.476 15.248 165.532 15.384 165.532 15.544C165.532 15.672 165.332 15.92 164.932 16.288C164.548 16.656 164.028 17.088 163.372 17.584C162.716 18.064 161.98 18.56 161.164 19.072C160.348 19.584 159.5 20.064 158.62 20.512C157.756 20.96 156.916 21.32 156.1 21.592C155.3 21.864 154.58 22 153.94 22C153.108 22 152.46 21.688 151.996 21.064C151.532 20.44 151.3 19.472 151.3 18.16C151.3 17.28 151.412 16.392 151.636 15.496C151.876 14.6 152.196 13.744 152.596 12.928C153.012 12.096 153.468 11.36 153.964 10.72C154.476 10.064 155.012 9.552 155.572 9.184C156.132 8.8 156.676 8.608 157.204 8.608C158.212 8.608 159.004 8.888 159.58 9.448C160.156 10.008 160.444 10.744 160.444 11.656ZM153.772 15.64C154.268 15.336 154.78 15.016 155.308 14.68C155.836 14.344 156.324 14 156.772 13.648C157.22 13.296 157.58 12.928 157.852 12.544C158.14 12.144 158.284 11.736 158.284 11.32C158.284 10.728 157.964 10.432 157.324 10.432C156.924 10.432 156.5 10.688 156.052 11.2C155.62 11.696 155.204 12.344 154.804 13.144C154.404 13.944 154.06 14.776 153.772 15.64ZM182.754 21.28C182.738 21.536 182.634 21.744 182.442 21.904C182.25 22.064 182.026 22.144 181.77 22.144C181.482 22.144 181.242 22.048 181.05 21.856C180.858 21.664 180.762 21.368 180.762 20.968C180.762 19.928 180.81 18.8 180.906 17.584C181.002 16.352 181.122 15.136 181.266 13.936C181.41 12.72 181.554 11.6 181.698 10.576C181.17 11.328 180.594 12.16 179.97 13.072C179.362 13.984 178.738 14.888 178.098 15.784C177.458 16.68 176.834 17.504 176.226 18.256C175.618 18.992 175.066 19.592 174.57 20.056C174.074 20.504 173.666 20.728 173.346 20.728C172.754 20.728 172.242 20.496 171.81 20.032C171.378 19.552 171.162 18.952 171.162 18.232C171.162 17.944 171.194 17.552 171.258 17.056C171.322 16.544 171.394 16.008 171.474 15.448C171.554 14.888 171.626 14.368 171.69 13.888C171.754 13.392 171.786 13.024 171.786 12.784C171.786 12.56 171.762 12.368 171.714 12.208C171.682 12.032 171.602 11.944 171.474 11.944C171.282 11.944 171.018 12.16 170.682 12.592C170.346 13.008 169.97 13.544 169.554 14.2C169.154 14.856 168.738 15.552 168.306 16.288C167.89 17.024 167.498 17.72 167.13 18.376C166.762 19.016 166.45 19.52 166.194 19.888C165.986 20.24 165.794 20.496 165.618 20.656C165.442 20.816 165.226 20.896 164.97 20.896C164.666 20.896 164.386 20.736 164.13 20.416C163.89 20.096 163.77 19.704 163.77 19.24C163.77 18.968 163.818 18.544 163.914 17.968C164.01 17.376 164.13 16.728 164.274 16.024C164.434 15.32 164.586 14.632 164.73 13.96C164.89 13.272 165.026 12.688 165.138 12.208C165.266 11.664 165.426 11.296 165.618 11.104C165.81 10.912 166.018 10.816 166.242 10.816C166.546 10.816 166.786 10.928 166.962 11.152C167.154 11.36 167.25 11.688 167.25 12.136C167.25 12.216 167.202 12.432 167.106 12.784C167.01 13.12 166.89 13.536 166.746 14.032C166.618 14.512 166.474 15.016 166.314 15.544C166.17 16.072 166.05 16.56 165.954 17.008C166.306 16.416 166.674 15.776 167.058 15.088C167.458 14.4 167.858 13.72 168.258 13.048C168.658 12.36 169.058 11.736 169.458 11.176C169.858 10.6 170.25 10.144 170.634 9.808C171.018 9.472 171.386 9.304 171.738 9.304C172.154 9.304 172.538 9.432 172.89 9.688C173.258 9.944 173.554 10.288 173.778 10.72C174.002 11.152 174.114 11.632 174.114 12.16C174.114 12.528 174.05 13.048 173.922 13.72C173.794 14.376 173.658 15.088 173.514 15.856C173.386 16.624 173.306 17.352 173.274 18.04C173.274 18.2 173.322 18.28 173.418 18.28C173.498 18.28 173.594 18.224 173.706 18.112C174.17 17.6 174.682 16.984 175.242 16.264C175.802 15.528 176.37 14.752 176.946 13.936C177.538 13.12 178.122 12.32 178.698 11.536C179.274 10.736 179.81 10.016 180.306 9.376C180.818 8.72 181.266 8.2 181.65 7.816C182.05 7.432 182.362 7.24 182.586 7.24C183.066 7.24 183.434 7.376 183.69 7.648C183.946 7.92 184.074 8.376 184.074 9.016C184.074 9.528 184.034 10.192 183.954 11.008C183.89 11.824 183.802 12.712 183.69 13.672C183.594 14.632 183.482 15.6 183.354 16.576C183.242 17.536 183.13 18.432 183.018 19.264C182.906 20.08 182.818 20.752 182.754 21.28ZM188.602 22.624C187.994 22.624 187.49 22.344 187.09 21.784C186.706 21.208 186.514 20.464 186.514 19.552C186.514 18.704 186.722 17.864 187.138 17.032C187.57 16.2 188.138 15.4 188.842 14.632C189.546 13.864 190.314 13.16 191.146 12.52C191.978 11.864 192.81 11.296 193.642 10.816C194.49 10.336 195.266 9.96 195.97 9.688C196.674 9.416 197.234 9.28 197.65 9.28C197.874 9.28 198.058 9.328 198.202 9.424C198.346 9.504 198.418 9.656 198.418 9.88C198.418 10.024 198.362 10.16 198.25 10.288C198.266 10.288 198.282 10.288 198.298 10.288C198.65 10.288 198.826 10.496 198.826 10.912C198.826 11.056 198.77 11.352 198.658 11.8C198.546 12.232 198.418 12.776 198.274 13.432C198.13 14.088 198.002 14.816 197.89 15.616C197.778 16.4 197.722 17.2 197.722 18.016C197.722 18.704 197.986 19.048 198.514 19.048C199.106 19.048 199.706 18.912 200.314 18.64C200.922 18.368 201.514 18.04 202.09 17.656C202.666 17.256 203.194 16.864 203.674 16.48C204.154 16.08 204.562 15.744 204.898 15.472C205.234 15.2 205.474 15.064 205.618 15.064C205.746 15.064 205.858 15.104 205.954 15.184C206.05 15.264 206.098 15.392 206.098 15.568C206.098 15.728 205.938 16.016 205.618 16.432C205.298 16.848 204.874 17.32 204.346 17.848C203.818 18.376 203.226 18.888 202.57 19.384C201.914 19.88 201.242 20.288 200.554 20.608C199.866 20.928 199.21 21.088 198.586 21.088C198.106 21.088 197.666 20.944 197.266 20.656C196.882 20.352 196.57 19.84 196.33 19.12C196.106 18.4 195.994 17.408 195.994 16.144V15.544C195.21 16.84 194.386 18.024 193.522 19.096C192.674 20.168 191.826 21.024 190.978 21.664C190.146 22.304 189.354 22.624 188.602 22.624ZM197.194 11.008C197.114 11.04 197.002 11.088 196.858 11.152C196.122 11.488 195.354 11.904 194.554 12.4C193.77 12.896 193.002 13.448 192.25 14.056C191.514 14.664 190.85 15.296 190.258 15.952C189.666 16.608 189.194 17.272 188.842 17.944C188.49 18.616 188.314 19.272 188.314 19.912C188.314 20.12 188.354 20.28 188.434 20.392C188.53 20.504 188.69 20.56 188.914 20.56C189.234 20.56 189.65 20.36 190.162 19.96C190.674 19.544 191.234 19 191.842 18.328C192.466 17.656 193.09 16.912 193.714 16.096C194.338 15.28 194.93 14.456 195.49 13.624C196.066 12.792 196.562 12.024 196.978 11.32C197.042 11.208 197.114 11.104 197.194 11.008Z" fill="#FFA500"/>
</svg>
