<svg width="48" height="48" viewBox="0 0 48 48" fill="none" xmlns="http://www.w3.org/2000/svg">
<path d="M22.9624 45.3142C10.61 45.3142 0.553223 35.2583 0.553223 22.9071C0.553223 10.5559 10.61 0.5 22.9624 0.5C35.3148 0.5 45.3716 10.5559 45.3716 22.9071C45.3716 35.2583 35.3148 45.3142 22.9624 45.3142ZM22.9624 3.77909C12.4028 3.77909 3.83261 12.3703 3.83261 22.9071C3.83261 33.4439 12.4028 42.0351 22.9624 42.0351C33.522 42.0351 42.0922 33.4439 42.0922 22.9071C42.0922 12.3703 33.522 3.77909 22.9624 3.77909Z" fill="#B7B9BB"/>
<path d="M45.9191 47.5C45.5037 47.5 45.0883 47.347 44.7604 47.019L40.3879 42.6469C39.7538 42.013 39.7538 40.9637 40.3879 40.3297C41.0219 39.6958 42.0713 39.6958 42.7053 40.3297L47.0778 44.7018C47.7118 45.3358 47.7118 46.3851 47.0778 47.019C46.7499 47.347 46.3345 47.5 45.9191 47.5Z" fill="#B7B9BB"/>
</svg>
